<svg xmlns="http://www.w3.org/2000/svg" viewBox="0 0 1200 630" width="1200" height="630">
  <rect width="1200" height="630" fill="#FBF8F1"/>
  <text x="80" y="120" font-family="Inter, sans-serif" font-size="20" font-weight="500" letter-spacing="2" fill="#5A8B7A">CHECK THE LEASE</text>
  <text x="80" y="280" font-family="Georgia, serif" font-size="92" font-weight="500" letter-spacing="-2" fill="#171717">Read your lease.</text>
  <text x="80" y="380" font-family="Georgia, serif" font-size="92" font-weight="500" font-style="italic" letter-spacing="-2" fill="#1E3A5F">Before it reads you.</text>
  <text x="80" y="480" font-family="Inter, sans-serif" font-size="24" fill="#6B6B6B">Free for US renters and landlords. Information, not legal advice.</text>
  <g transform="translate(880, 180)">
    <g transform="rotate(-6 70 70)">
      <rect x="30" y="28" width="76" height="94" fill="#FBF8F1" stroke="#171717" stroke-width="2.5" rx="3"/>
      <rect x="38" y="38" width="42" height="4" fill="#171717"/>
      <line x1="38" y1="52" x2="98" y2="52" stroke="#171717" stroke-width="1.5"/>
      <line x1="38" y1="60" x2="92" y2="60" stroke="#171717" stroke-width="1.5"/>
      <line x1="38" y1="68" x2="98" y2="68" stroke="#171717" stroke-width="1.5"/>
      <rect x="38" y="74" width="58" height="6" fill="#C97A4A" opacity="0.45"/>
      <line x1="38" y1="88" x2="98" y2="88" stroke="#171717" stroke-width="1.5"/>
      <line x1="38" y1="96" x2="80" y2="96" stroke="#171717" stroke-width="1.5"/>
      <line x1="38" y1="104" x2="98" y2="104" stroke="#171717" stroke-width="1.5"/>
    </g>
    <circle cx="92" cy="78" r="22" fill="rgba(30,58,95,0.08)" stroke="#1E3A5F" stroke-width="3"/>
    <line x1="108" y1="94" x2="124" y2="110" stroke="#1E3A5F" stroke-width="4" stroke-linecap="round"/>
  </g>
</svg>
